<svg xmlns="http://www.w3.org/2000/svg" viewBox="0 0 512 512">
  <rect width="512" height="512" rx="96" fill="#0a0a0a"/>
  <!-- Robot head -->
  <rect x="156" y="120" width="200" height="160" rx="32" fill="#3b82f6"/>
  <rect x="176" y="148" width="56" height="56" rx="12" fill="#0a0a0a"/>
  <rect x="280" y="148" width="56" height="56" rx="12" fill="#0a0a0a"/>
  <rect x="192" y="160" width="28" height="28" rx="6" fill="#22c55e"/>
  <rect x="296" y="160" width="28" height="28" rx="6" fill="#22c55e"/>
  <!-- Antenna -->
  <line x1="256" y1="120" x2="256" y2="80" stroke="#3b82f6" stroke-width="8" stroke-linecap="round"/>
  <circle cx="256" cy="72" r="12" fill="#22c55e"/>
  <!-- Mouth / display -->
  <rect x="200" y="228" width="112" height="24" rx="8" fill="#0a0a0a"/>
  <rect x="208" y="234" width="16" height="12" rx="2" fill="#22c55e"/>
  <rect x="232" y="234" width="16" height="12" rx="2" fill="#22c55e"/>
  <rect x="256" y="234" width="16" height="12" rx="2" fill="#22c55e"/>
  <rect x="280" y="234" width="16" height="12" rx="2" fill="#22c55e"/>
  <!-- Chart line -->
  <polyline points="80,400 160,380 240,340 300,370 360,300 432,320" fill="none" stroke="#22c55e" stroke-width="12" stroke-linecap="round" stroke-linejoin="round"/>
  <polyline points="300,370 360,300 432,320" fill="none" stroke="#3b82f6" stroke-width="12" stroke-linecap="round" stroke-linejoin="round"/>
  <!-- Chart dots -->
  <circle cx="240" cy="340" r="8" fill="#22c55e"/>
  <circle cx="360" cy="300" r="8" fill="#3b82f6"/>
  <circle cx="432" cy="320" r="8" fill="#3b82f6"/>
</svg>
